<?xml version="1.0" encoding="utf-8"?>
<!-- Generator: Adobe Illustrator 21.0.2, SVG Export Plug-In . SVG Version: 6.00 Build 0)  -->
<svg version="1.1" id="Layer_1" xmlns="http://www.w3.org/2000/svg" xmlns:xlink="http://www.w3.org/1999/xlink" x="0px" y="0px"
	 viewBox="0 0 764.179 224" enable-background="new 0 0 764.179 224" xml:space="preserve">
<g>
	<g>
		<path fill="#333333" d="M382.11,101.113v32.681h-3.528v-26.898l-11.562,16.658l-11.515-16.658v26.898h-3.527v-32.681h3.821
			l11.221,16.61l11.269-16.61H382.11z"/>
		<path fill="#333333" d="M409.159,119.095v7.35c0,6.762-6.859,7.741-10.044,7.741c-3.186,0-10.24-0.979-10.24-7.888
			c0-8.085,10.534-8.035,12.787-8.035c2.205,0,3.92,0.244,3.92,0.244c0-4.605-2.743-6.075-7.153-6.075
			c-3.527,0-6.223,0.833-7.153,1.176v-3.43c1.812-0.637,4.312-1.273,7.35-1.273C405.484,108.904,409.159,112.432,409.159,119.095z
			 M405.631,121.741c0,0-1.616-0.294-4.36-0.294c-2.939,0-8.868,0.343-8.868,4.851c0,3.87,3.675,4.605,6.713,4.605
			c3.037,0,6.516-0.735,6.516-4.459C405.631,122.672,405.631,121.741,405.631,121.741z"/>
		<path fill="#333333" d="M419.891,109.345v25.87c0,5.39-2.792,8.035-8.524,8.035v-3.282c4.262-0.099,4.997-1.765,4.997-4.949
			v-25.674H419.891z M420.087,101.113v3.871h-3.92v-3.871H420.087z"/>
		<path fill="#333333" d="M426.996,133.794v-33.758h3.527v33.758H426.996z"/>
		<path fill="#333333" d="M442.233,104.984h-3.92v-3.871h3.92V104.984z M442.037,109.345h-3.527v24.449h3.527V109.345z"/>
		<path fill="#333333" d="M464.969,127.375c0,4.263-3.381,6.811-8.967,6.811c-3.233,0-5.634-0.882-7.398-1.861v-3.724
			c2.156,1.322,4.704,2.155,7.252,2.155s5.585-0.588,5.585-3.381c0-6.565-13.131-2.792-13.131-11.366
			c0-3.43,2.304-7.104,8.673-7.104c2.548,0,4.654,0.734,6.271,1.519v3.527c-1.323-0.783-3.332-1.665-5.88-1.665
			c-2.499,0-5.536,0.637-5.536,3.724C451.838,120.81,464.969,117.772,464.969,127.375z"/>
		<path fill="#333333" d="M512.154,133.794H507.5l-12.788-14.895l-3.577,3.92v10.975h-3.527v-32.681h3.527v16.854l15.14-16.854
			h4.753L497.015,116.4L512.154,133.794z"/>
		<path fill="#333333" d="M537.878,119.291v14.503h-3.527v-14.503c0-4.654-2.009-6.859-6.271-6.859c-2.841,0-5.34,0.784-7.005,1.47
			v19.893h-3.528v-33.758h3.528v10.436c1.861-0.784,4.458-1.567,7.396-1.567C534.448,108.904,537.878,112.677,537.878,119.291z"/>
		<path fill="#333333" d="M565.416,109.345v14.16c0,6.811-3.724,10.681-10.24,10.681s-10.24-3.87-10.24-10.681v-14.16h3.527v14.356
			c0,4.948,2.107,7.202,6.713,7.202c4.557,0,6.713-2.254,6.713-7.202v-14.356H565.416z"/>
		<path fill="#333333" d="M583.253,108.953c2.106,0,4.115,0.294,6.075,0.931v-9.848h3.528v26.458c0,1.813-0.735,7.692-10.045,7.692
			c-4.018,0-10.729-1.665-10.729-12.935C572.082,111.06,578.157,108.953,583.253,108.953z M582.812,130.952
			c4.312,0,6.517-1.421,6.517-4.312v-13.229c-1.91-0.783-3.969-1.225-6.075-1.225c-5.341,0-7.644,2.744-7.644,9.064
			C575.609,129.973,579.726,130.952,582.812,130.952z"/>
		<path fill="#333333" d="M610.105,108.953c2.106,0,4.115,0.294,6.075,0.931v-9.848h3.528v26.458c0,1.813-0.735,7.692-10.045,7.692
			c-4.018,0-10.729-1.665-10.729-12.935C598.935,111.06,605.01,108.953,610.105,108.953z M609.664,130.952
			c4.312,0,6.517-1.421,6.517-4.312v-13.229c-1.91-0.783-3.969-1.225-6.075-1.225c-5.341,0-7.644,2.744-7.644,9.064
			C602.462,129.973,606.578,130.952,609.664,130.952z"/>
		<path fill="#333333" d="M645.678,119.095v7.35c0,6.762-6.859,7.741-10.044,7.741c-3.186,0-10.24-0.979-10.24-7.888
			c0-8.085,10.534-8.035,12.787-8.035c2.205,0,3.92,0.244,3.92,0.244c0-4.605-2.743-6.075-7.153-6.075
			c-3.527,0-6.223,0.833-7.153,1.176v-3.43c1.812-0.637,4.312-1.273,7.35-1.273C642.003,108.904,645.678,112.432,645.678,119.095z
			 M642.149,121.741c0,0-1.616-0.294-4.36-0.294c-2.939,0-8.868,0.343-8.868,4.851c0,3.87,3.675,4.605,6.713,4.605
			c3.037,0,6.516-0.735,6.516-4.459C642.149,122.672,642.149,121.741,642.149,121.741z"/>
		<path fill="#333333" d="M687.032,117.87v15.924h-3.528V117.87c0-2.303-0.637-5.438-6.075-5.438c-2.743,0-5.145,0.686-6.762,1.225
			c0.539,1.226,0.784,2.597,0.784,4.214v15.924h-3.527V117.87c0-2.352-0.637-5.438-6.223-5.438c-2.205,0-4.263,0.392-5.83,0.882
			v20.48h-3.528v-22.538c1.274-0.637,5.096-2.352,9.8-2.352c2.694,0,4.899,0.734,6.467,2.009c1.715-0.735,5.047-2.009,9.064-2.009
			C683.603,108.904,687.032,112.187,687.032,117.87z"/>
		<path fill="#333333" d="M715.11,109.345v14.16c0,6.811-3.724,10.681-10.24,10.681s-10.24-3.87-10.24-10.681v-14.16h3.527v14.356
			c0,4.948,2.107,7.202,6.713,7.202c4.557,0,6.713-2.254,6.713-7.202v-14.356H715.11z"/>
		<path fill="#333333" d="M722.559,133.794v-33.758h3.528v33.758H722.559z"/>
		<path fill="#333333" d="M378.288,184.793h-3.772l-3.92-10.191h-14.11l-3.92,10.191h-3.821l13.032-32.681h3.528L378.288,184.793z
			 M369.273,171.221l-5.732-14.943l-5.733,14.943H369.273z"/>
		<path fill="#333333" d="M404.355,170.29v14.503h-3.527V170.29c0-4.654-2.009-6.859-6.271-6.859c-2.842,0-5.341,0.784-7.006,1.47
			v19.893h-3.528v-33.758h3.528v10.436c1.861-0.784,4.458-1.567,7.397-1.567C400.926,159.903,404.355,163.676,404.355,170.29z"/>
		<path fill="#333333" d="M446.984,168.869v15.924h-3.528v-15.924c0-2.303-0.637-5.438-6.075-5.438
			c-2.743,0-5.145,0.686-6.762,1.225c0.539,1.226,0.784,2.597,0.784,4.214v15.924h-3.526v-15.924c0-2.352-0.637-5.438-6.223-5.438
			c-2.205,0-4.263,0.392-5.83,0.882v20.48h-3.528v-22.538c1.274-0.637,5.096-2.352,9.8-2.352c2.694,0,4.899,0.734,6.466,2.009
			c1.715-0.735,5.047-2.009,9.064-2.009C443.555,159.903,446.984,163.186,446.984,168.869z"/>
		<path fill="#333333" d="M473.103,170.094v7.35c0,6.762-6.859,7.741-10.044,7.741c-3.186,0-10.24-0.979-10.24-7.888
			c0-8.085,10.534-8.035,12.787-8.035c2.205,0,3.92,0.244,3.92,0.244c0-4.605-2.743-6.075-7.153-6.075
			c-3.527,0-6.223,0.833-7.153,1.176v-3.43c1.812-0.637,4.312-1.273,7.35-1.273C469.428,159.903,473.103,163.431,473.103,170.094z
			 M469.574,172.74c0,0-1.616-0.294-4.36-0.294c-2.939,0-8.868,0.343-8.868,4.851c0,3.87,3.675,4.605,6.713,4.605
			c3.037,0,6.516-0.735,6.516-4.459C469.574,173.671,469.574,172.74,469.574,172.74z"/>
		<path fill="#333333" d="M489.763,159.952c2.106,0,4.115,0.294,6.075,0.931v-9.848h3.528v26.457c0,1.813-0.735,7.692-10.045,7.692
			c-4.018,0-10.729-1.665-10.729-12.935C478.592,162.059,484.667,159.952,489.763,159.952z M489.321,181.951
			c4.312,0,6.517-1.421,6.517-4.312V164.41c-1.91-0.783-3.969-1.225-6.075-1.225c-5.341,0-7.644,2.744-7.644,9.064
			C482.119,180.972,486.235,181.951,489.321,181.951z"/>
		<path fill="#333333" d="M510.54,155.983h-3.92v-3.871h3.92V155.983z M510.344,160.344h-3.527v24.449h3.527V160.344z"/>
		<path fill="#333333" d="M537.291,160.344l-9.995,26.85c-2.155,5.831-5.389,7.056-7.691,7.056c-0.98,0-1.812-0.245-2.303-0.44
			v-3.234c0.44,0.196,1.176,0.441,2.106,0.441c3.332,0,5.341-6.614,5.341-6.614l-9.016-24.058h3.773l6.956,19.354l7.056-19.354
			H537.291z"/>
		<path fill="#333333" d="M561.889,160.344l-9.995,26.85c-2.156,5.831-5.39,7.056-7.692,7.056c-0.98,0-1.812-0.245-2.303-0.44
			v-3.234c0.44,0.196,1.176,0.441,2.106,0.441c3.332,0,5.341-6.614,5.341-6.614l-9.016-24.058h3.773l6.957,19.354l7.056-19.354
			H561.889z"/>
		<path fill="#333333" d="M585.115,170.094v7.35c0,6.762-6.859,7.741-10.044,7.741c-3.186,0-10.24-0.979-10.24-7.888
			c0-8.085,10.534-8.035,12.787-8.035c2.205,0,3.92,0.244,3.92,0.244c0-4.605-2.743-6.075-7.153-6.075
			c-3.527,0-6.223,0.833-7.153,1.176v-3.43c1.812-0.637,4.312-1.273,7.35-1.273C581.44,159.903,585.115,163.431,585.115,170.094z
			 M581.587,172.74c0,0-1.616-0.294-4.36-0.294c-2.939,0-8.868,0.343-8.868,4.851c0,3.87,3.675,4.605,6.713,4.605
			c3.037,0,6.516-0.735,6.516-4.459C581.587,173.671,581.587,172.74,581.587,172.74z"/>
		<path fill="#333333" d="M635.632,152.112v19.256c0,8.917-4.703,13.816-13.276,13.816c-8.575,0-13.278-4.899-13.278-13.816v-19.256
			h3.527v19.452c0,7.006,3.186,10.387,9.751,10.387c6.564,0,9.749-3.381,9.749-10.387v-19.452H635.632z"/>
		<path fill="#333333" d="M664.249,176.464c0,5.438-4.312,8.721-11.612,8.721c-4.164,0-7.349-1.077-9.651-2.303v-3.821
			c1.91,1.273,4.948,2.597,9.407,2.597c3.772,0,8.329-0.882,8.329-5.193c0-9.555-18.031-4.753-18.031-15.679
			c0-4.41,2.94-9.113,11.27-9.113c3.332,0,6.075,0.931,8.183,1.96v3.625c-1.813-1.028-4.508-2.058-7.84-2.058
			c-5.193,0-8.084,1.96-8.084,5.586C646.219,167.938,664.249,163.97,664.249,176.464z"/>
		<path fill="#333333" d="M697.177,184.793h-3.772l-3.92-10.191h-14.11l-3.92,10.191h-3.821l13.032-32.681h3.528L697.177,184.793z
			 M688.162,171.221l-5.732-14.943l-5.733,14.943H688.162z"/>
	</g>
	<g>
		<g>
			<path fill="#333333" d="M95.448,146.818v-24.36c-33,0-58.998,28.866-58.998,62.866h24.361
				C60.812,164.324,75.448,146.818,95.448,146.818z"/>
			<path fill="#333333" d="M148.448,146.818v-24.36c-34,0-60.186,28.866-60.186,62.866h24.361
				C112.624,164.324,127.448,146.818,148.448,146.818z"/>
			<path fill="#333333" d="M249.448,146.818v-24.36c34,0,62.152,28.866,62.152,62.866h-24.359
				C287.241,164.324,269.448,146.818,249.448,146.818z"/>
			<path fill="#333333" d="M221.105,129.586l28.359-28.262h-29.31l-24.707,21.26v24.234c21,0,37.98,17.506,37.98,38.506h24.361
				C257.789,160.324,242.67,138.934,221.105,129.586z"/>
			<circle fill="#333333" cx="267.142" cy="165.09" r="6.09"/>
		</g>
		<polygon fill="#333333" points="190.448,81.324 190.448,61.556 181.989,43.388 173.189,25.221 163.317,43.388 153.448,61.556 
			153.448,81.324 147.448,81.324 147.448,93.225 153.448,99.314 153.448,185.324 190.448,185.324 190.448,99.314 196.448,93.225 
			196.448,81.324 		"/>
	</g>
</g>
<rect fill="none" width="764.179" height="224"/>
<g>
</g>
<g>
</g>
<g>
</g>
<g>
</g>
<g>
</g>
<g>
</g>
</svg>
